<?xml version="1.0" encoding="iso-8859-1"?>
<!-- Generator: Adobe Illustrator 19.0.0, SVG Export Plug-In . SVG Version: 6.00 Build 0)  -->
<svg xmlns="http://www.w3.org/2000/svg" xmlns:xlink="http://www.w3.org/1999/xlink" version="1.1" id="Capa_1" x="0px" y="0px" viewBox="0 0 512 512" style="enable-background:new 0 0 512 512;" xml:space="preserve" width="512px" height="512px">
<g>
	<g>
		<g>
			<path d="M256.228,64.001c-5.896,0-10.667,4.771-10.667,10.667v163.124c-6.392,3.69-10.895,10.316-10.895,18.21     c0,11.76,9.563,21.333,21.333,21.333c0.04,0,0.074-0.023,0.115-0.023c0.04,0,0.073,0.023,0.113,0.023     c1.842,0,3.491-0.611,5.198-1.052l83.26,83.26c2.083,2.083,4.813,3.125,7.542,3.125c2.729,0,5.458-1.042,7.542-3.125     c4.167-4.167,4.167-10.917,0-15.083l-83.26-83.26c0.441-1.707,1.052-3.355,1.052-5.198c0-7.794-4.408-14.332-10.667-18.056     V74.667C266.895,68.771,262.124,64.001,256.228,64.001z" fill="#edc215"/>
			<path d="M237.61,0.639C149.701,6.77,72.101,60.574,29.044,137.428l-0.018,0.033c-0.063,0.12-0.137,0.233-0.199,0.353l0.081-0.004     c-1.21,2.302-1.649,5.025-0.914,7.733c1.292,4.75,5.586,7.875,10.296,7.875c0.917,0,1.855-0.115,2.793-0.375l88.373-23.927     c3.251-0.875,5.878-3.229,7.128-6.354c1.23-3.115,0.938-6.646-0.813-9.51l-13.996-22.84     c37.298-30.272,84.203-47.744,134.112-47.744c119.72,0,216.745,99.048,213.341,219.477     c-3.142,111.214-95.876,203.93-207.136,207.102C145.06,472.581,48.179,381.193,42.703,266.273     c-0.272-5.714-4.763-10.272-10.485-10.272H10.836c-6.044,0-11.084,5.056-10.826,11.092     C6.254,412.791,134.908,527.337,285.55,510.321c115.697-13.068,209.832-105.824,224.367-221.294     C530.312,127.012,398.102-10.554,237.61,0.639z" fill="#edc215"/>
		</g>
	</g>
</g>
<g>
</g>
<g>
</g>
<g>
</g>
<g>
</g>
<g>
</g>
<g>
</g>
<g>
</g>
<g>
</g>
<g>
</g>
<g>
</g>
<g>
</g>
<g>
</g>
<g>
</g>
<g>
</g>
<g>
</g>
</svg>
