<?xml version="1.0" encoding="iso-8859-1"?>
<!-- Generator: Adobe Illustrator 19.0.0, SVG Export Plug-In . SVG Version: 6.00 Build 0)  -->
<svg version="1.1" id="Layer_1" xmlns="http://www.w3.org/2000/svg" xmlns:xlink="http://www.w3.org/1999/xlink" x="0px" y="0px"
	 viewBox="0 0 512 512" style="enable-background:new 0 0 512 512;" xml:space="preserve">
<path style="fill:#E6E6E6;" d="M467.141,414.1c0,54.073-94.53,97.9-211.136,97.9c-116.617,0-211.147-43.827-211.147-97.9
	c0-8.755,2.477-17.247,7.128-25.33h0.01c16.418-28.522,59.92-51.9,116.953-63.888h174.112
	C416.24,340.261,467.141,374.419,467.141,414.1z"/>
<path style="fill:#CCCCCC;" d="M256.006,411.938c0,0-145.947-49.412-204.009-23.168c16.418-28.522,59.92-51.9,116.953-63.888h41.948
	L256.006,411.938z"/>
<path style="fill:#E24260;" d="M376.656,49.976L376.656,49.976c-66.635-66.635-174.672-66.635-241.307,0l0,0
	c-66.635,66.635-66.635,174.672,0,241.306l120.653,120.653l120.653-120.653C443.291,224.647,443.291,116.611,376.656,49.976z"/>
<circle style="fill:#E6E6E6;" cx="256.003" cy="170.626" r="108.124"/>
<path style="fill:#49618C;" d="M331.032,172.899c0,29.383-16.89,54.818-41.497,67.132v33.393v0.011
	c-21.751,7.086-45.307,7.086-67.058,0v-0.011V240.03c-24.606-12.314-41.507-37.749-41.507-67.132
	c0-29.844,17.415-55.616,42.641-67.709v67.331l64.78-0.01l0.011-67.32C313.616,117.283,331.032,143.054,331.032,172.899z"/>
<g>
</g>
<g>
</g>
<g>
</g>
<g>
</g>
<g>
</g>
<g>
</g>
<g>
</g>
<g>
</g>
<g>
</g>
<g>
</g>
<g>
</g>
<g>
</g>
<g>
</g>
<g>
</g>
<g>
</g>
</svg>
